<?xml version="1.0" encoding="utf-8"?>
<svg width="60.345703px" height="45.26367px" viewBox="0 0 60.345703 45.26367" version="1.1" xmlns:xlink="http://www.w3.org/1999/xlink" xmlns="http://www.w3.org/2000/svg">
  <path d="M3.66211 33.9551L0 36.1523Q2.69531 41.0742 5.88867 43.1689Q9.08203 45.2637 13.0078 45.2637Q18.1055 45.2637 21.665 41.8066Q25.2246 38.3496 25.2246 33.6621Q25.2246 30.4102 23.1445 27.1875Q21.0645 23.9648 15.4688 19.834Q10.752 16.3477 9.90234 15.5273Q8.34961 13.9746 7.76367 12.6563Q7.17773 11.3379 7.17773 9.93164Q7.17773 7.61719 8.83301 6.03516Q10.4883 4.45313 13.0957 4.45313Q15.1172 4.45313 16.8311 5.47852Q18.5449 6.50391 20.9766 9.72656L24.4922 7.06055Q21.5332 3.01758 18.8818 1.50879Q16.2305 0 13.1836 0Q10.3125 0 7.86621 1.33301Q5.41992 2.66602 4.07227 4.98047Q2.72461 7.29492 2.72461 10.1074Q2.72461 13.6523 5.00977 16.6992Q6.32813 18.5156 11.7188 22.5879Q17.0801 26.6309 19.1016 29.502Q20.5664 31.582 20.5664 33.75Q20.5664 35.6543 19.5703 37.3535Q18.5742 39.0527 16.6699 40.0635Q14.7656 41.0742 12.5977 41.0742Q7.5293 41.0742 3.66211 33.9551ZM26.8594 1.08398L22.1719 1.08398L40.6582 44.1797L41.5957 44.1797L60.3457 1.08398L55.6582 1.08398L41.1421 34.379L26.8594 1.08398Z" id="S-Union" fill="#E2E2E2" fill-rule="evenodd" stroke="none" />
</svg>