<?xml version="1.0" encoding="utf-8"?>
<svg width="68px" height="62px" viewBox="0 0 68 62" version="1.1" xmlns:xlink="http://www.w3.org/1999/xlink" xmlns="http://www.w3.org/2000/svg">
  <g id="S" fill="#FFFFFF">
    <path d="M0.791016 50.5205L4.45313 48.3232Q8.32031 55.4424 13.3887 55.4424Q15.5566 55.4424 17.4609 54.4316Q19.3652 53.4209 20.3613 51.7217Q21.3574 50.0225 21.3574 48.1182Q21.3574 45.9502 19.8926 43.8701Q17.8711 40.999 12.5098 36.9561Q7.11914 32.8838 5.80078 31.0674Q3.51563 28.0205 3.51563 24.4756Q3.51562 21.6631 4.86328 19.3486Q6.21094 17.0342 8.65723 15.7012Q11.1035 14.3682 13.9746 14.3682Q17.0215 14.3682 19.6729 15.877Q22.3242 17.3857 25.2832 21.4287L21.7676 24.0947Q19.3359 20.8721 17.6221 19.8467Q15.9082 18.8213 13.8867 18.8213Q11.2793 18.8213 9.62402 20.4033Q7.96875 21.9854 7.96875 24.2998Q7.96875 25.7061 8.55469 27.0244Q9.14062 28.3428 10.6934 29.8955Q11.543 30.7158 16.2598 34.2021Q21.8555 38.333 23.9355 41.5557Q26.0156 44.7783 26.0156 48.0303Q26.0156 52.7178 22.4561 56.1748Q18.8965 59.6318 13.7988 59.6318Q9.87305 59.6318 6.67969 57.5371Q3.48633 55.4424 0.791016 50.5205Z" />
  </g>
  <g id="V" fill="#FFFFFF" transform="translate(22 0)">
    <path d="M1.96289 15.4521L6.65039 15.4521L20.9331 48.7471L35.4492 15.4521L40.1367 15.4521L21.3867 58.5479L20.4492 58.5479L1.96289 15.4521Z" />
  </g>
</svg>